<?xml version="1.0" encoding="utf-8"?>
<!-- Generator: Adobe Illustrator 26.0.3, SVG Export Plug-In . SVG Version: 6.00 Build 0)  -->
<svg version="1.1" id="Layer_1" xmlns="http://www.w3.org/2000/svg" xmlns:xlink="http://www.w3.org/1999/xlink" x="0px" y="0px"
	 viewBox="0 0 225.27 225.27" style="enable-background:new 0 0 225.27 225.27;" xml:space="preserve">
<style type="text/css">
	.st0{fill:#FFFFFF;}
</style>
<g>
	<g>
		<g>
			<path class="st0" d="M51.86,31.3c1.3,0.66,2.81,1.11,3.73,2.31c0.68,0.85,0.68,1.99,0.93,3c0.16,0.84,0.56,1.72,0.21,2.57
				c-0.83,2.21-1.8,4.37-2.75,6.54c-1.21,2.24-3.08,4.1-4.06,6.48c-0.32,0.9-0.43,1.86-0.58,2.8c0.57-2.09,1.72-3.94,2.98-5.68
				c1.85-2.98,3.66-6.02,5-9.27c0.43-1.59,0.13-3.28-0.07-4.89c-0.24-1.1-0.38-2.44-1.41-3.11c-1.99-1.33-4.28-2.17-6.2-3.62
				c-0.84-0.62-1.29-1.6-1.73-2.51c-0.8-1.74-1.4-3.66-1.19-5.59c0.13-1.26,0.88-2.33,1.51-3.38c0.43-0.63,0.85-1.35,1.58-1.65
				c0.59-0.2,1.11,0.29,1.47,0.69c1.08,1.3,1.67,3.1,1.26,4.78c-0.15,0.57-0.27,1.32-0.9,1.57c-0.71-0.01-1.36-0.44-1.81-0.96
				c-0.68-0.75-0.22-2.12,0.77-2.33c0.34-0.13,1.03-0.27,0.81-0.8c-0.17-0.49-0.81-1.19-1.35-0.81c-0.54,0.89-0.96,1.89-1.02,2.94
				c-0.06,1.37,1.03,2.45,2.09,3.14c0.85,0.53,1.7-0.35,2.03-1.08c0.8-1.87,1.15-4.09,0.29-6c-0.46-1.1-0.87-2.37-1.91-3.06
				c-1.34-0.54-3.07-0.4-4.1,0.68c-0.7,0.71-0.99,1.69-1.25,2.64c-0.57,2.15-1.04,4.36-1.02,6.59c-0.01,1.69,0.7,3.27,1.42,4.76
				C47.65,30,50,30.45,51.86,31.3z"/>
			<path class="st0" d="M156.06,160.85c-0.11-0.43-0.23-1.06-0.38-1.87c-0.04-0.25-0.08-0.49-0.11-0.71
				c-0.57,1.04-1.3,2.36-2.19,3.93c0.25,0.21,0.41,0.49,0.47,0.82c0.18,1.02-0.49,1.85-2,2.47c-0.48,0.2-0.88,0.57-1.17,1.07
				c-0.3,0.51-0.4,0.98-0.32,1.46c0.09,0.51,0.34,0.89,0.77,1.16c0.43,0.28,0.91,0.37,1.47,0.27c1.13-0.2,2.11-1.08,2.91-2.61
				c0.82-1.56,1.09-3.14,0.81-4.71C156.25,161.7,156.16,161.27,156.06,160.85z"/>
			<path class="st0" d="M121.38,188.53c0.08,0.47,0.26,0.78,0.54,0.95c0.29,0.18,0.71,0.22,1.25,0.13c1.46-0.26,2.8-1.34,3.99-3.21
				c1.18-1.86,2.51-5,3.96-9.33c-0.36,0.27-0.84,0.62-1.43,1.06C123.73,182.52,120.94,186.02,121.38,188.53z"/>
			<path class="st0" d="M102.01,150.06c-0.01-0.03-0.02-0.11-0.06-0.14c-0.02-0.01-0.05-0.02-0.1-0.02c-0.03,0-0.07,0-0.11,0.01
				c-0.99,0.17-2.22,1.51-3.67,3.97c-1.19,2.03-2.38,5.12-3.53,9.21c1.79-2.19,3.48-4.63,5.03-7.25
				C101.77,152.1,102.11,150.63,102.01,150.06z"/>
			<path class="st0" d="M121.18,163.67c-0.07,0-0.15,0.01-0.24,0.02c-1.22,0.22-2.67,1.81-4.31,4.72c-1.65,2.94-2.35,5.21-2.08,6.74
				c0.19,1.04,0.7,1.09,1.12,1.02c0.73-0.13,2.15-1.45,4.74-7.02c1.37-2.99,1.56-4.22,1.46-4.73
				C121.79,163.91,121.58,163.67,121.18,163.67z"/>
			<path class="st0" d="M105.79,166.4c-0.07,0-0.15,0.01-0.22,0.02c-1.25,0.22-2.73,1.82-4.4,4.75c-1.68,2.95-2.39,5.23-2.12,6.78
				c0.07,0.4,0.21,0.68,0.4,0.83c0.11,0.08,0.24,0.12,0.4,0.14c0.17-0.17,0.33-0.35,0.48-0.55c0.24-0.2,0.32-0.25,0.41-0.26
				l0.06-0.01l0.06,0.01c0.14,0.03,0.24,0.1,0.31,0.19c0.72-0.73,1.75-2.24,3.22-5.19c1.89-3.79,2.14-5.37,2.03-6.03
				C106.31,166.53,106.07,166.4,105.79,166.4z"/>
			<path class="st0" d="M67.52,181.64c-0.91,0.16-1.58,0.38-1.99,0.65c-0.45,0.3-0.46,0.59-0.42,0.78c0.09,0.52,0.94,0.69,1.64,0.74
				c1.14,0.08,2.85-0.07,5.06-0.46c1.91-0.34,3.68-0.77,5.27-1.29c-3.11-0.38-5.57-0.57-7.36-0.57
				C68.82,181.49,68.08,181.54,67.52,181.64z"/>
			<path class="st0" d="M208.95,125.52c-5.23,0.78-10.46,1.56-15.68,2.36c-15.87,2.34-31.72,4.8-47.59,7.09
				c0.58-0.74,1.16-1.49,1.6-2.32c1.18-2.14,0.96-4.69,0.98-7.04c-0.55-1.08-0.38-2.31-0.5-3.48c-0.47-7.57-0.81-15.18-0.13-22.75
				c0.11-1,0.75-1.83,1.31-2.62c0.6-0.8,1.18-1.69,2.1-2.13c1.5-0.76,3.1-1.3,4.77-1.55c1.6-0.23,2.81-1.42,4.17-2.17
				c1.16-0.62,3.11-2.4,2.02-3.17c-0.19-0.14-0.65,0.01-0.82,0.07c0.21-0.15,0.74-0.86,0.8-1.73c0.2-2.75-0.42-4.38-0.42-4.38
				s0.98-1.95,0.17-2.75c-0.72-0.91-1.75,0.1-2.6,0.25c-1.46,0.42-2.57-0.83-3.81-1.37c-0.01,0.22-0.02,0.68-0.03,0.9
				c0.16,2.32,2.57,3.5,3.14,5.63c-0.54,1.55-2.07,2.53-3.37,3.46c-0.77,0.67-1.87-0.04-2.04-0.91c-0.26-1.19-0.44-2.52,0.15-3.63
				c0.61-1.18,1.18-2.37,1.58-3.63c0.06-0.79-0.01-1.59-0.11-2.37c-0.1,0-1.97,2.93-3.18,4.05c-1.7,1.62-3.01,3.61-4.13,5.66
				c-1.09,1.99-1.03,4.33-1.69,6.46c-0.8,2.61-1.69,5.22-2.12,7.93c-0.47,2.88-0.89,5.76-1.3,8.65c-0.53,3.86-1.19,7.71-1.3,11.61
				c-0.38,3.26-0.44,6.55-0.58,9.83c-0.22-1.89-0.44-3.8-0.93-5.64c-0.57-2.37-1.66-4.59-2.01-7.01c-0.44-3.03-0.5-6.1-1.05-9.11
				c-0.47-2.6-1-5.2-1.86-7.7c-0.73-2.14-2.1-4.01-3.68-5.62c-0.97-1.02-2.29-1.56-3.37-2.45c-0.97-0.8-1.9-1.72-2.38-2.9
				c-1.64-4.17-3.62-8.27-4.34-12.73c-0.32-2.11-0.59-4.25-0.36-6.39c0.1-0.67,0.3-1.62,1.1-1.77c0.78-0.02,1.73,0.22,2.09,0.99
				c0.37,0.82,0.71,1.73,0.58,2.64c-0.49,1.18-2,1.77-2,3.18c-0.07,0.99,0.91,1.49,1.65,1.89c-0.35-0.62-0.85-1.19-0.94-1.92
				c0.35-0.84,1.46-0.94,1.91-1.68c0.41-0.8,0.67-1.69,0.58-2.58c-0.14-1.48-0.17-3.01-0.8-4.37c-0.4-0.74-0.89-1.42-1.25-2.17
				c0.01-0.12,0.02-0.37,0.03-0.5c0.62-0.66,1.6-0.82,2.29-1.42c2.54-2.19,3.82-5.46,4.4-8.7c0.17-1.54-0.21-3.13,0.34-4.62
				c0.5-1.02,1.67-1.53,2.1-2.6c0.78-1.78,0.51-3.78,0.62-5.68c0.18-2.92,0.3-5.84,0.21-8.76c0.02-1.55-0.86-2.89-1.52-4.23
				c-0.58-1.04-1.08-2.19-1.99-2.99c-0.66-0.62-1.62-0.41-2.45-0.45c0.05-0.7,0.1-1.4,0.11-2.1c0.04-1.17-0.53-2.23-0.83-3.33
				c-0.26-0.85-1.34-0.8-2.03-1.06c-0.67-1.07-1.44-2.15-2.48-2.89c-0.15-0.56-0.33-1.11-0.55-1.65c-0.97,0.48-1.76,1.26-2.73,1.69
				c-1.33-0.34-2.62-1.3-4.05-0.79c-1.25,0.46-1.45,1.93-1.88,3.01c-0.58-0.48-0.52-1.23-0.58-1.91c-0.68,0.41-1.36,0.84-1.89,1.43
				c-0.32,0.45-0.26,1.03-0.41,1.54c-0.22,0.33-0.58,0.52-0.88,0.77c-0.1-0.7-0.21-1.39-0.3-2.09c-0.74,1.48-0.9,3.2-1.77,4.61
				c-0.4,0.78-1.38,0.5-2.07,0.53c-0.25-0.32-0.5-0.65-0.74-0.97c-1.39,1.04-1.36,2.86-1.76,4.39c-0.38,1.52-1.81,2.42-2.41,3.83
				c0.05-0.71,0.08-1.44,0.25-2.13c0.19-1.03,1.31-1.58,1.47-2.63c0.17-1.08-0.09-2.16-0.34-3.21c-0.08,0.9-0.01,1.81-0.09,2.7
				c-0.4,1.46-1.46,2.56-2.49,3.59c-1.85,2.93-2.54,6.4-3.17,9.75c-0.29,1.33,0.02,2.68,0.5,3.93c0.36,0.11,0.72,0.22,1.08,0.33
				c-0.48,2.96,0.08,5.92,0.42,8.86c0.57,1.88,1.85,3.51,2.06,5.51c0.64,2.7-0.85,5.28-0.78,7.96c0.22,0.52,0.9,0.5,1.34,0.7
				l0.22,0.04c0.07,0.29,0.14,0.58,0.2,0.87c0.19,0.72-0.55,1.44-0.06,2.11c0.18,0.18,0.38,0.36,0.58,0.54
				c0.05,0.72,0.19,1.44,0.68,1.99c0.91,1.1,0.74,2.64,1.42,3.85c0.42,0.42,1.1,0.24,1.59,0.04c1.85-0.86,2.8-2.85,4.55-3.85
				c0.52-0.34,1.26-0.22,1.65,0.26c0.8,0.97,0.9,2.29,1.07,3.48c0.31,2.06-0.29,4.11-0.78,6.09c-0.29,1.34-1.39,2.48-2.73,2.79
				c-1.43,0.27-2.48-1.28-3.92-1.02c-1.57,0.28-3.41,0.62-4.33,2.08c-0.98,1.44-1.97,2.89-2.62,4.5c-1.24,3.36-2.17,6.83-3.31,10.22
				c-1.58,3.77-3.25,7.5-4.85,11.26c-1.14,2.71-1.71,5.62-2.95,8.29c-0.02-2.06-0.23-4.12-0.54-6.16c-0.36-1.78-1.3-3.38-1.89-5.1
				c-1.54-4.32-3.06-8.64-4.95-12.82c-2.07-4.83-4.36-9.56-6.15-14.5c-0.46-1.28-1-2.53-1.58-3.76c-0.82-1.5-1.52-3.1-2.55-4.49
				c-1.22-0.89-2.78-1.14-4.24-1.42c-2.37-0.53-4.4,1.56-6.76,1.11c-0.06-1.25-0.54-2.6-1.69-3.24c-0.53-0.3-0.98,0.22-1.42,0.44
				c0.05-0.49,0.08-0.98,0.12-1.46c-3.82,0.78-7.76,0.8-11.6,0.22c0.19,3.78,0.04,7.63,0.92,11.34c0.5,1.9,1.26,3.82,2.62,5.28
				c0.9,0.9,2.36,1.56,3.59,0.95c1.06-0.59,1.57-1.77,2.29-2.69c0.42,0.3,0.81,0.64,1.16,1.03c1.38-0.3,2.13-1.54,2.84-2.64
				c0.34-0.72,1.22-0.39,1.84-0.39c-0.44,2.21-2.09,4.07-2.34,6.32c0.78,0.35,1.32-0.54,1.64-1.11c0.58-1.21,1.42-2.25,2.26-3.28
				c0.85-1.23,2.53-0.54,3.77-0.62c1.57,0.23,3.39,0.45,4.45,1.77c1.85,2.44,3.17,5.26,3.98,8.2c0.98,3.38,1.73,6.83,2.24,10.31
				c1.1,5.57,2.4,11.11,3.67,16.64c0.95,4.45,2.61,8.71,4.13,12.98c0.61,1.59,1.22,3.25,2.35,4.54c0.29,0.26,0.67,0.67,1.1,0.47
				c1.31-0.5,2-1.82,2.6-3c1.43-2.76,2.76-5.56,4-8.41c1.19-2.68,2.97-5.04,4.22-7.69c0.81-1.62,1.39-3.35,2.23-4.96
				c0.08,2.11-0.26,4.24,0.03,6.35c0.11,2.01,0.86,3.89,1.55,5.76c1.05,2.62,1.18,5.48,1.57,8.25c0.36,2.4,0.22,4.84-0.07,7.24
				c-20.98,3.09-41.95,6.28-62.92,9.41c-1.49,0.22-2.97,0.44-4.45,0.66c-5.72,0.83-11.42,1.77-17.14,2.53
				c0.04,0.39,0.08,0.79,0.12,1.18c-0.47-0.02-0.94-0.02-1.42-0.04l18.6,47.37c0.86-0.01,18.75-2.1,19.13-2.1
				c16.75-1.81,33.47-3.95,50.21-5.88c8.54-1.02,31.19-3.88,31.19-3.88l0.31,0.29c0,0-51.74,7.32-73.63,10.51
				c-2.09,0.31-4.2,0.61-6.29,0.91c-4.3,0.61-8.59,1.27-12.9,1.85c0.26,0.26,0.44,0.58,0.55,0.93c-0.51,0.13-1.03,0.22-1.56,0.26
				c0.02,0.11,7.85,6.4,8.1,6.66c0.76-0.08,19.06-3.73,21.43-4.13c37.82-7.59,75.64-15.13,113.45-22.76
				c0.12-0.09,7.64-1.44,7.79-1.52c-0.01-0.18-0.02-0.54-0.03-0.7c0.39-0.09,0.78-0.17,1.18-0.25
				C198.87,163.73,203.92,144.62,208.95,125.52z M53.99,82.82c0.34-1.8,0.88-3.6,0.67-5.45c0.49,0.81,1.26,1.52,1.32,2.52
				c0.06,0.4,0.09,0.81,0.14,1.22C55.5,81.8,54.8,82.4,53.99,82.82z M55.02,74.88c-0.04-1.08-0.18-2.15-0.16-3.22
				c0.23-0.66,1.61-0.76,1.71,0.08C56.93,73.04,55.83,74.03,55.02,74.88z M121.79,136.22c2.1-2.08,3.77-4.55,5.4-7
				c0.9-1.32,1.5-2.8,2.06-4.28c0.97,4.05,2.09,8.07,3.54,11.97c-4.1,0.62-8.2,1.26-12.31,1.84
				C120.72,137.82,121.08,136.89,121.79,136.22z M119.15,102.7c1.49,0.26,0.82,2.19-0.29,1.93
				C117.78,104.35,118.32,102.64,119.15,102.7z M116.33,102.24c0.39-0.51,1.38-0.14,1.52,0.36c0.26,0.7,0.22,2.01-0.91,1.96
				C115.62,104.38,115.72,102.91,116.33,102.24z M113.96,101.3c0.22-0.34,0.6-0.54,0.98-0.42c0.61,0.19,0.88,1.04,0.77,1.77
				c-0.17,1.19-1.81,1.19-2.01,0.02C113.62,102.2,113.71,101.68,113.96,101.3z M111.74,98.14c1.02-0.29,1.61,0.97,1.64,1.8
				c0.04,0.47-0.05,1.06-0.29,1.52c-0.41,0.79-1.58,0.81-2.05,0.06C110.39,100.46,110.26,98.69,111.74,98.14z M110.86,96.2
				c0.2,0.96-0.34,2.51-1.56,2.25c-1.26-0.65-1.3-2.69-0.22-3.52C109.94,94.34,110.81,95.37,110.86,96.2z M107.21,89.18
				c0.48-0.21,1.06-0.07,1.41,0.31c0.86,0.92,0.96,2.36,0.59,3.53c-0.23,0.66-0.74,1.37-1.5,1.4c-0.97-0.04-1.5-1.05-1.65-1.89
				C105.87,91.35,106.07,89.82,107.21,89.18z M141.15,168c-1.44,2.28-3.48,4.49-6.06,6.58l-0.7,2.04c-1.46,4.21-3.21,7.5-5.21,9.79
				c-2.09,2.38-4.06,3.76-5.88,4.08c-0.17,0.03-0.34,0.05-0.5,0.05c-0.49,0-0.93-0.14-1.33-0.4c-0.54-0.35-0.87-0.86-0.98-1.5
				c-0.55-3.1,2.29-6.78,8.68-11.25c0.5-0.37,1.27-0.91,2.3-1.61l0.21-0.18l1.26-3.6c-0.26,0.46-0.5,0.82-0.7,1.09
				c-0.62,0.84-1.32,1.33-2.1,1.47c-0.69,0.12-1.34-0.06-1.94-0.56c-0.6-0.47-0.97-1.1-1.1-1.86c-0.04-0.26-0.05-0.56-0.02-0.9
				c-1.6,2.88-2.95,4.39-4.1,4.59c-0.76,0.14-1.45-0.04-2.03-0.53c-0.57-0.47-0.94-1.15-1.08-2.01c-0.06-0.29-0.08-0.6-0.06-0.93
				c-1.57,2.98-2.89,4.54-4.04,4.74c-0.17,0.03-0.34,0.05-0.5,0.05c-0.68,0-1.31-0.26-1.89-0.77c-0.7-0.62-1.14-1.48-1.34-2.55
				c-0.04-0.2-0.05-0.39-0.06-0.59c-0.23,0.4-0.48,0.84-0.77,1.34c-1.42,2.49-2.65,3.81-3.75,4c-0.76,0.14-1.44-0.05-2.02-0.54
				c-0.57-0.47-0.94-1.14-1.08-1.96c-0.05-0.27-0.07-0.54-0.07-0.83c-0.7,1.38-1.3,2.38-1.78,3.01c-0.63,0.82-1.31,1.32-2.03,1.52
				c-0.09,0.09-0.18,0.18-0.28,0.29c-1.3,1.28-3.37,2.18-6.16,2.67c-2.01,0.36-4.02,0.51-5.96,0.46c-1.93-0.05-4.91-0.34-8.89-0.88
				c-2.35,0.9-4.84,1.6-7.42,2.05c-1.69,0.3-3.12,0.45-4.25,0.45c-0.41,0-0.78-0.02-1.11-0.06c-1.35-0.17-2.11-0.68-2.26-1.53
				c-0.14-0.79,0.26-1.47,1.2-2.02c0.85-0.5,2.18-0.92,3.97-1.24c2.73-0.48,6.95-0.5,12.55-0.06c1.42-0.89,2.65-2.04,3.64-3.44
				c0.8-1.13,1.72-2.82,2.75-5.04c-3.29,3.65-6.66,5.79-10.04,6.39c-2.65,0.46-4.93,0.05-6.8-1.25c-1.86-1.29-3.05-3.29-3.52-5.96
				c-0.71-4.04,0.53-8.25,3.69-12.53c3.16-4.27,6.92-6.82,11.17-7.57c2-0.36,3.72-0.12,5.1,0.71c1.4,0.83,2.27,2.16,2.58,3.94
				c0.54,3.07-0.34,6.52-2.61,10.28c-2.29,3.77-4.81,5.92-7.51,6.4c-1.18,0.22-2.27,0.01-3.23-0.59c-0.97-0.62-1.55-1.49-1.75-2.59
				c-0.15-0.86-0.01-1.66,0.42-2.39c0.43-0.74,1.04-1.19,1.8-1.33c0.53-0.1,0.97-0.02,1.3,0.21c0.34,0.22,0.55,0.61,0.65,1.14
				c0.1,0.56-0.02,1.1-0.35,1.6c-0.33,0.5-0.76,0.81-1.28,0.9c-0.46,0.08-0.83,0.02-1.1-0.18c-0.25-0.18-0.4-0.46-0.46-0.83
				c0,0.16,0.02,0.38,0.07,0.69c0.15,0.85,0.58,1.47,1.31,1.93c0.75,0.46,1.59,0.59,2.57,0.42c2.32-0.41,4.57-2.41,6.68-5.96
				c2.13-3.56,2.96-6.74,2.48-9.46c-0.26-1.44-0.94-2.5-2.08-3.25c-1.14-0.74-2.49-0.98-4.01-0.71c-3.78,0.67-7.12,3.25-9.92,7.67
				c-2.81,4.43-3.87,8.75-3.14,12.87c0.34,1.88,1.21,3.26,2.59,4.12c1.39,0.86,3.18,1.1,5.31,0.73c1.85-0.33,3.64-1.12,5.31-2.36
				c1.69-1.25,3.7-3.28,6-6.05c1.61-4.21,2.81-7.2,3.58-8.88c0.74-1.62,1.7-3.31,2.84-5.03c2.28-3.43,4.13-5.22,5.67-5.49
				c0.39-0.07,0.72-0.02,0.97,0.14c0.22,0.16,0.36,0.4,0.42,0.73c0.2,1.13-0.72,3.37-2.81,6.88c-2.02,3.39-4.1,6.23-6.2,8.43
				c-1.12,4.32-2.52,7.63-4.15,9.83c-1.47,1.98-3.58,3.69-6.29,5.06c5.4,0.46,8.71,0.71,9.84,0.77c1.17,0.05,2.29-0.02,3.31-0.2
				c0.81-0.14,1.54-0.45,2.21-0.9c-0.36-0.13-0.7-0.33-1.02-0.62c-0.7-0.62-1.14-1.47-1.34-2.55c-0.52-2.92,1.08-5.88,4.74-8.82
				c1.63-1.32,2.97-2.05,4.1-2.25c0.9-0.16,1.53,0.14,1.81,0.86l0.36-1.11l0.23,0.01c0.43,0.02,0.82,0.01,1.13-0.05
				c0.38-0.06,0.87-0.21,1.46-0.42l0.61-0.22l-2.98,7.74c-1.15,3.03-1.3,4.21-1.22,4.66c0.05,0.27,0.14,0.46,0.25,0.56
				c0.04,0.03,0.15,0.13,0.45,0.08c0.28-0.05,0.95-0.42,2.26-2.38c0.93-1.38,1.84-3.05,2.72-4.95c0.1-0.23,0.21-0.46,0.33-0.7
				c0.02-0.05,0.05-0.13,0.11-0.21c0.58-1.06,1.43-2.13,2.57-3.2c2.17-2.05,3.93-3.17,5.36-3.43c0.97-0.17,1.62,0.2,1.88,1.04
				l4.97-13.08l0.23,0.03c0.48,0.06,0.94,0.05,1.38-0.03c0.06-0.01,0.32-0.07,1.33-0.33l0.58-0.14l-0.22,0.55
				c-3.94,9.67-6.44,15.93-7.44,18.59c-1.23,3.33-1.4,4.51-1.33,4.91c0.1,0.58,0.36,0.66,0.73,0.58c0.85-0.14,2.45-1.65,5.35-8.01
				c0.02-0.04,0.05-0.14,0.12-0.23l2.01-5.36h0.2c0.34,0,0.72-0.04,1.14-0.11c0.36-0.06,0.87-0.21,1.51-0.42l0.62-0.21l-3.33,8.4
				c-1.06,2.68-1.21,3.69-1.14,4.08c0.1,0.58,0.37,0.66,0.73,0.59c1.01-0.18,2.79-1.97,5.58-9.52l1.48-4.01h0.21
				c0.34-0.01,0.74-0.05,1.2-0.13c0.38-0.07,0.84-0.2,1.39-0.4l0.64-0.23l-0.26,0.62c-1.23,3.02-2.84,7.4-4.8,13.03
				c1.25-1.02,2.3-2.06,3.15-3.12c1.03-1.27,2.14-3.04,3.3-5.24c0.24-0.46,0.36-0.59,0.54-0.62c0.25-0.05,0.46,0.1,0.5,0.35
				c0.01,0.02,0.01,0.06,0.01,0.09C143.08,164.67,142.88,165.24,141.15,168z M174.56,154.37c0.88-0.26,1.54-0.94,2.33-1.37
				c-0.4,0.74-1.11,1.2-1.77,1.68c-1.06,0.75-2.16,1.51-3.44,1.83c-1.26,0.34-2.61,0.24-3.85,0.71c-0.68,0.3-1.22,0.82-1.84,1.22
				c0.28-0.79,1.02-1.24,1.63-1.74c0.82-0.61,1.62-1.26,2.59-1.6C171.64,154.71,173.16,154.83,174.56,154.37z M148.38,153.58
				c-0.22,0-0.38-0.14-0.42-0.36c-0.02-0.12-0.02-0.34,0.29-0.52c1.22-0.73,1.88-1.39,1.92-1.93c-0.38,0.05-0.69-0.01-0.92-0.16
				c-0.27-0.18-0.44-0.46-0.51-0.86c-0.11-0.65,0.1-1.39,0.62-2.21c0.53-0.82,1.1-1.29,1.69-1.39c0.76-0.14,1.28,0.24,1.42,1.02
				c0.03,0.18,0.05,0.38,0.05,0.57c0,0.94-0.38,2.01-1.14,3.18c-0.35,0.53-0.83,1.09-1.45,1.66c-0.66,0.62-1.12,0.93-1.46,0.99
				C148.43,153.58,148.4,153.58,148.38,153.58z M157.88,168.09c-1.15,1.24-2.65,2.02-4.47,2.35c-0.3,0.05-0.58,0.07-0.85,0.07
				c-0.72,0-1.36-0.18-1.91-0.54c-0.76-0.5-1.24-1.28-1.42-2.32c-0.21-1.16,0.01-2.37,0.64-3.61c0.64-1.26,1.44-1.98,2.37-2.15
				c0.1-0.02,0.2-0.02,0.3-0.02l1.27-2.28c0.42-0.72,0.96-1.7,1.61-2.93c0.08-1.08,0.31-2.05,0.7-2.88
				c0.43-0.93,0.94-1.43,1.54-1.54c0.24-0.05,0.41,0.02,0.5,0.09c0.14,0.1,0.23,0.26,0.27,0.47c0.01,0.05,0.02,0.1,0.02,0.17
				c0,0.5-0.33,1.47-2.14,3.96c-0.01,0.42,0.02,0.77,0.07,1.06c0.14,0.81,0.76,2.06,1.84,3.73c0.58,0.9,0.93,1.66,1.05,2.33
				C159.52,165.47,159.06,166.83,157.88,168.09z M163.68,152.48c-0.49,0.6-0.54,1.45-1.04,2.04c0.06-1.42,0.66-2.72,1.21-4
				c0.73-1.75,2.63-2.49,3.78-3.89c0.68-0.74,0.88-1.74,1.34-2.6c0.04,0.94-0.34,1.81-0.69,2.66c-0.46,1.15-0.98,2.32-1.85,3.22
				C165.58,150.85,164.45,151.48,163.68,152.48z M175.65,164.76c-1.62,0.06-3.32,0.14-4.84-0.51c-1.14-0.44-2.14-1.22-3.36-1.44
				c-0.71-0.1-1.43,0.01-2.13-0.08c1.34-0.56,2.83-0.49,4.25-0.5c1.89,0,3.3,1.46,5.05,1.95c0.88,0.3,1.82,0.16,2.73,0.12
				C176.93,164.79,176.22,164.68,175.65,164.76z"/>
			<path class="st0" d="M48.72,50.21c-1.25,1.94-2.31,4.07-2.61,6.38c-0.36,2.25-1.05,4.69-0.01,6.87c0.75,1.61,1.62,3.22,2.92,4.45
				c0.32-0.26,0.64-0.52,0.95-0.78c-1.32-1.35-2.34-3.06-2.52-4.97c-0.17-2.04-0.09-4.08,0.04-6.12c0.14-1.43,0.22-2.96,1-4.22
				c1.08-1.79,2.28-3.5,3.55-5.15c0.75-1.03,1.58-2.06,1.9-3.32c0.81-2.8,0.36-5.82-0.63-8.52c-0.46-1.42-2.09-2.19-3.49-2.07
				c-0.95,0.41-1.54,1.35-2.09,2.19c-1.06,1.72-1.18,3.8-1.21,5.76c0.03,0.9,0.07,1.9,0.67,2.63c1.04,1.03,3.12,0.51,3.47-0.95
				c0.28-1.11,0.52-2.35,0.11-3.46c-0.3-0.5-1.3-0.95-1.59-0.22c-0.2,0.92-0.07,1.87-0.07,2.8c0.16-0.71,0.3-1.43,0.45-2.15
				c0.77,0.03,1.04,0.98,1.01,1.62c-0.38,0.89-0.93,1.83-1.85,2.23c-1.04-1.16-1.58-2.76-1.4-4.32c0.14-1.18,0.77-2.22,1.37-3.23
				c0.45-0.67,0.94-1.44,1.74-1.72c0.67-0.17,1.08,0.52,1.46,0.94c1.63,1.87,1.76,4.5,1.67,6.86
				C53.15,45.13,50.56,47.54,48.72,50.21z"/>
			<path class="st0" d="M173.04,111.93c0.1,0.1,0.3,0.29,0.4,0.38c2.32-4.06,4.76-8.05,7.12-12.08c1.74-2.97,3.55-5.89,5.23-8.89
				c-4.03-0.87-8.06-1.77-12.08-2.65c-0.01,0.39-0.03,1.16-0.03,1.16l-1.53-0.11c0,0,0,1.24-0.01,1.75
				c-0.06,4.58-0.07,9.16-0.12,13.74c-0.31,2.81-0.16,5.64-0.22,8.47c0.12-0.05,0.34-0.14,0.46-0.19
				C172.53,112.97,172.79,112.45,173.04,111.93z"/>
			<path class="st0" d="M176.19,123.58c5.16-0.51,10.34-0.76,15.49-1.43c0.9-0.22,14.82-1.17,14.82-1.17s-0.01-0.43-0.01-0.58
				l-0.35,0.05c0,0,0.03-0.41,0.04-0.54c0.64-0.06,1.28-0.12,1.93-0.17c-4.86-5.59-9.75-11.14-14.59-16.73
				c-2.5,2.03-4.75,4.35-7.17,6.46c-2.53,2.26-4.98,4.61-7.42,6.97c-2.58,2.49-5.43,4.71-7.77,7.43
				C172.84,124,174.5,123.64,176.19,123.58z"/>
		</g>
		<g>
			<path class="st0" d="M154.49,61.31c0.84-0.45,1.75-0.78,2.45-1.47c0.35,1.13-0.59,2.03-0.63,3.11c-0.24,1.39-0.24,2.8-0.2,4.21
				c0.07,1.46-0.65,2.77-1.21,4.06c-0.32-0.89-0.97-1.73-0.88-2.72c0.01-0.67,0.02-1.37,0.4-1.95c0.43-0.7,0.42-1.56,0.44-2.35
				c-0.89,1.27-1.16,2.84-1.27,4.36c-0.68-0.44-1.48-1.03-1.4-1.94C152.34,64.66,153.05,62.68,154.49,61.31"/>
			<path class="st0" d="M147.15,68.52c1.16-0.63,2.51-1.35,3.85-1.04c3.34,2.15,5.15,6.47,4.34,10.35
				c-0.01,0.23-0.02,0.68-0.03,0.91c0.03,1.15,0.11,2.46-0.75,3.36c0.03-0.82,0.15-1.63,0.22-2.44c0.06-0.79-0.01-1.59-0.11-2.37
				c-0.09-0.01-0.28-0.04-0.37-0.05c-0.56-0.09-1.14-0.06-1.68-0.25c-0.51-0.31-0.88-0.79-1.27-1.23c-0.88-1.29-2.07-2.37-2.73-3.81
				c-0.31-0.79-1.09-1.16-1.81-1.48c-0.33,0.13-0.65,0.26-0.97,0.39C145.75,69.88,146.29,68.96,147.15,68.52 M150.01,70.6
				c0.77,0.99,1.96,1.53,2.7,2.56c0.91,1.06,1.34,2.42,2.21,3.51c-0.34-1.16-0.7-2.32-1.27-3.38
				C152.76,72.03,151.53,70.97,150.01,70.6"/>
			<path class="st0" d="M155.21,71.58c0.78-1.26,2.03-2.29,3.51-2.56c0.77,0.03,1.55,0.11,2.32-0.01c-0.13,0.34-0.26,0.7-0.58,0.9
				c-1.22,0.87-1.85,2.29-2.49,3.6c-0.45,0.96-1.39,1.56-2.24,2.11c0-0.55,0.01-1.1,0.01-1.65c0.37-1.31,1.86-1.68,2.28-2.95
				c-1.02,0.53-1.83,1.4-2.37,2.41C155.27,72.92,154.81,72.22,155.21,71.58"/>
		</g>
	</g>
</g>
</svg>
